<svg id="Capa_1" enable-background="new 0 0 511.988 511.988" height="512" viewBox="0 0 511.988 511.988" width="512" xmlns="http://www.w3.org/2000/svg"><g><path d="m511.988 255.994c0 87.438-43.839 164.636-110.737 210.815-7.45-9.14-21.96-7.03-26.509 3.85l-6.43 15.43c-33.909 16.59-72.028 25.899-112.318 25.899-141.377 0-255.994-114.617-255.994-255.994 0-46.219 12.25-89.568 33.679-126.997 44.119-77.068 127.157-128.997 222.315-128.997s178.196 51.929 222.315 128.997c21.43 37.429 33.679 80.778 33.679 126.997z" fill="#57c3eb"/><path d="m511.988 255.994c0 43.009-10.61 83.538-29.349 119.117-10.23 19.42-22.87 37.359-37.539 53.429-13.1 14.35-27.809 27.199-43.849 38.269-7.45-9.14-21.96-7.03-26.509 3.85l-6.43 15.43c-33.909 16.59-72.028 25.899-112.318 25.899-74.898 0-142.287-32.169-189.106-83.448-14.67-16.07-27.309-34.009-37.539-53.429-18.739-35.579-29.349-76.108-29.349-119.117 0-46.219 12.25-89.568 33.679-126.997 25.41 44.379 63.719 80.428 109.827 103.008 33.679 16.52 71.518 25.839 111.518 25.979.32.01.65.01.97.01s.65 0 .97-.01c39.939-.14 77.708-9.43 111.348-25.889.05-.03.11-.05.16-.08 5.55-2.72 10.99-5.63 16.31-8.74 5.63-3.28 11.13-6.77 16.47-10.47 31.539-21.759 57.949-50.429 77.058-83.808 21.429 37.429 33.678 80.778 33.678 126.997z" fill="#41aae1"/><g><path d="m401.251 97.288v369.522c-5.35 3.69-10.84 7.18-16.47 10.47-5.37 3.13-10.86 6.07-16.47 8.81l7.44-400.271c.32-17.46-13.74-31.789-31.209-31.789h-65.699c-15.65 0-28.879 11.59-30.939 27.109l-16.85 127.247h-16.47v-111.098c0-39.949 32.499-72.458 72.458-72.458h41.749c39.951 0 72.46 32.509 72.46 72.458z" fill="#fff"/><path d="m384.781 97.288v379.991c-5.37 3.13-10.86 6.07-16.47 8.81v-388.801c0-21.799-17.73-39.529-39.519-39.529h-41.749c-21.799 0-39.529 17.73-39.529 39.529v111.098h-16.46v-111.098c0-30.919 25.059-55.989 55.989-55.989h41.749c30.93 0 55.989 25.07 55.989 55.989z" fill="#d3ebf6"/><g><path d="m237.195 302.923h-111.708v-34.779c0-28.309 16.71-52.709 40.809-63.879 14.5-6.72 27.419-16.55 37.599-28.879 3.23-3.91 7.28-7.11 11.9-9.33 4.54-2.19 9.62-3.43 14.99-3.47h.26c24.959 43.049 27.149 95.498 6.15 140.337z" fill="#fff"/><path d="m237.195 302.923h-58.929v-34.779c0-28.309 8.35-52.709 20.4-63.879 7.26-6.72 13.72-16.55 18.799-28.879 1.62-3.91 3.65-7.11 5.95-9.33 2.24-2.16 4.74-3.39 7.37-3.47h.26c24.959 43.049 27.149 95.498 6.15 140.337z" fill="#d3ebf6"/><path d="m336.604 268.146v34.774h-105.558v-140.335c10.931 0 20.696 4.985 27.153 12.805 10.172 12.33 23.098 22.151 37.602 28.877 24.093 11.171 40.803 35.571 40.803 63.879z" fill="#9dd6ed"/><path d="m231.045 315.083h-107.288c-3.59 0-6.85-1.45-9.2-3.81-2.36-2.36-3.82-5.61-3.82-9.21 0-7.19 5.83-13.02 13.02-13.02h107.287c7.061 7.25 7.061 18.8.001 26.04z" fill="#d3ebf6"/><path d="m231.045 315.083h-54.499c-3.6 0-6.86-1.45-9.21-3.81-2.36-2.36-3.81-5.61-3.81-9.21 0-7.19 5.82-13.02 13.02-13.02h54.499c7.06 7.25 7.06 18.8 0 26.04z" fill="#9dd6ed"/><path d="m351.349 302.067c0 7.192-5.828 13.02-13.02 13.02h-107.283v-26.04h107.283c3.596 0 6.85 1.458 9.206 3.814s3.814 5.61 3.814 9.206z" fill="#76caea"/></g></g><g fill="#fff"><path d="m234.24 353.06-.439-.901c-1.116-2.295-4.387-2.295-5.503 0l-.439.901c-2.446 5.028-5.269 9.855-7.944 14.765-2.695 4.945-1.852 11.306 2.528 15.366 4.789 4.438 12.424 4.438 17.212 0 4.381-4.06 5.224-10.422 2.528-15.368-2.675-4.908-5.497-9.736-7.943-14.763z"/><path d="m173.506 389.221-.439-.901c-1.117-2.295-4.387-2.295-5.503 0l-.439.901c-2.446 5.028-5.269 9.855-7.944 14.765-2.695 4.945-1.852 11.306 2.528 15.366 4.788 4.438 12.423 4.438 17.212 0 4.381-4.06 5.224-10.422 2.528-15.368-2.675-4.909-5.497-9.736-7.943-14.763z"/><path d="m296.8 389.221-.439-.901c-1.117-2.295-4.387-2.295-5.503 0l-.439.901c-2.446 5.028-5.269 9.855-7.944 14.765-2.695 4.945-1.852 11.306 2.528 15.366 4.788 4.438 12.423 4.438 17.212 0 4.381-4.06 5.224-10.422 2.528-15.368-2.676-4.909-5.498-9.736-7.943-14.763z"/><path d="m145.597 329.094-.439-.901c-1.117-2.295-4.387-2.295-5.503 0l-.438.901c-2.446 5.028-5.269 9.855-7.944 14.765-2.695 4.945-1.852 11.306 2.528 15.366 4.788 4.438 12.424 4.438 17.212 0 4.381-4.06 5.224-10.422 2.528-15.367-2.677-4.909-5.499-9.737-7.944-14.764z"/><path d="m309.474 329.094-.439-.901c-1.116-2.295-4.387-2.295-5.503 0l-.438.901c-2.446 5.028-5.269 9.855-7.944 14.765-2.695 4.945-1.852 11.306 2.528 15.366 4.788 4.438 12.423 4.438 17.212 0 4.381-4.06 5.224-10.422 2.528-15.367-2.677-4.909-5.499-9.737-7.944-14.764z"/><path d="m230.061 449.225-.438-.901c-1.117-2.295-4.387-2.295-5.503 0l-.439.901c-2.446 5.028-5.269 9.855-7.944 14.765-2.695 4.945-1.852 11.306 2.528 15.366 4.788 4.438 12.423 4.438 17.212 0 4.381-4.06 5.224-10.422 2.528-15.368-2.677-4.908-5.498-9.735-7.944-14.763z"/></g></g></svg>